<?xml version="1.0" encoding="UTF-8"?>
<svg width="24px" height="24px" viewBox="0 0 24 24" version="1.1" xmlns="http://www.w3.org/2000/svg" xmlns:xlink="http://www.w3.org/1999/xlink">
    <title>􀁣</title>
    <g id="Page-1" stroke="none" stroke-width="1" fill="none" fill-rule="evenodd">
        <g id="􀁣" transform="translate(0.010254, 0.032227)" fill="#30D158" fill-rule="nonzero">
            <path d="M11.859375,23.7299805 C13.4915365,23.7299805 15.0226237,23.4211426 16.4526367,22.8034668 C17.8826497,22.185791 19.142334,21.3304036 20.2316895,20.2373047 C21.3210449,19.1442057 22.1764323,17.8826497 22.7978516,16.4526367 C23.4192708,15.0226237 23.7299805,13.4915365 23.7299805,11.859375 C23.7299805,10.2347005 23.4192708,8.70735677 22.7978516,7.27734375 C22.1764323,5.84733073 21.3210449,4.58577474 20.2316895,3.49267578 C19.142334,2.39957682 17.880778,1.54418945 16.4470215,0.926513672 C15.013265,0.308837891 13.4840495,0 11.859375,0 C10.2347005,0 8.70548503,0.308837891 7.27172852,0.926513672 C5.83797201,1.54418945 4.57641602,2.39957682 3.48706055,3.49267578 C2.39770508,4.58577474 1.54418945,5.84733073 0.926513672,7.27734375 C0.308837891,8.70735677 0,10.2347005 0,11.859375 C0,13.4915365 0.308837891,15.0226237 0.926513672,16.4526367 C1.54418945,17.8826497 2.39957682,19.1442057 3.49267578,20.2373047 C4.58577474,21.3304036 5.84733073,22.185791 7.27734375,22.8034668 C8.70735677,23.4211426 10.2347005,23.7299805 11.859375,23.7299805 Z M10.6240234,17.4858398 C10.3694661,17.4858398 10.1411133,17.4315592 9.93896484,17.322998 C9.73681641,17.2144368 9.54589844,17.0515951 9.36621094,16.8344727 L6.73828125,13.6899414 C6.6110026,13.5327148 6.51741536,13.3792318 6.45751953,13.2294922 C6.3976237,13.0797526 6.36767578,12.922526 6.36767578,12.7578125 C6.36767578,12.4134115 6.49121094,12.1195475 6.73828125,11.8762207 C6.98535156,11.6328939 7.27734375,11.5112305 7.61425781,11.5112305 C7.82389323,11.5112305 8.00919596,11.5524089 8.17016602,11.6347656 C8.33113607,11.7171224 8.48649089,11.851888 8.63623047,12.0390625 L10.6015625,14.4423828 L14.9702148,7.49072266 C15.269694,7.01155599 15.6402995,6.77197266 16.0820312,6.77197266 C16.4189453,6.77197266 16.7165527,6.88427734 16.9748535,7.10888672 C17.2331543,7.33349609 17.3623047,7.6180013 17.3623047,7.96240234 C17.3623047,8.10465495 17.3342285,8.25065104 17.2780762,8.40039062 C17.2219238,8.55013021 17.1489258,8.6961263 17.059082,8.83837891 L11.8369141,16.8120117 C11.6871745,17.0291341 11.5093587,17.1957194 11.3034668,17.3117676 C11.0975749,17.4278158 10.8710938,17.4858398 10.6240234,17.4858398 Z" id="Shape"></path>
        </g>
    </g>
</svg>