<?xml version="1.0" encoding="UTF-8"?>
<svg width="119px" height="119px" viewBox="0 0 119 119" version="1.1" xmlns="http://www.w3.org/2000/svg" xmlns:xlink="http://www.w3.org/1999/xlink">
    <title>Shape</title>
    <g id="Page-1" stroke="none" stroke-width="1" fill="none" fill-rule="evenodd">
        <g id="􀊖" transform="translate(59.376221, 59.675049) scale(1, -1) translate(-59.376221, -59.675049) translate(0.051270, 0.350098)" fill="#FFCC00" fill-rule="nonzero">
            <path d="M59.296875,118.649902 C67.4576823,118.649902 75.1131185,117.105713 82.2631836,114.017334 C89.4132487,110.928955 95.7116699,106.652018 101.158447,101.186523 C106.605225,95.7210286 110.882161,89.4132487 113.989258,82.2631836 C117.096354,75.1131185 118.649902,67.4576823 118.649902,59.296875 C118.649902,51.1735026 117.096354,43.5367839 113.989258,36.3867188 C110.882161,29.2366536 106.605225,22.9288737 101.158447,17.4633789 C95.7116699,11.9978841 89.40389,7.72094727 82.2351074,4.63256836 C75.0663249,1.54418945 67.4202474,0 59.296875,0 C51.1735026,0 43.5274251,1.54418945 36.3586426,4.63256836 C29.18986,7.72094727 22.8820801,11.9978841 17.4353027,17.4633789 C11.9885254,22.9288737 7.72094727,29.2366536 4.63256836,36.3867188 C1.54418945,43.5367839 0,51.1735026 0,59.296875 C0,67.4576823 1.54418945,75.1131185 4.63256836,82.2631836 C7.72094727,89.4132487 11.9978841,95.7210286 17.4633789,101.186523 C22.9288737,106.652018 29.2366536,110.928955 36.3867188,114.017334 C43.5367839,117.105713 51.1735026,118.649902 59.296875,118.649902 Z M48.0102539,82.9370117 C46.6251628,83.7605794 45.2494303,83.8635254 43.8830566,83.2458496 C42.5166829,82.6281738 41.8334961,81.570638 41.8334961,80.0732422 L41.8334961,38.6328125 C41.8334961,37.1354167 42.5260417,36.0778809 43.9111328,35.4602051 C45.296224,34.8425293 46.6625977,34.9267578 48.0102539,35.7128906 L82.7124023,55.9838867 C83.9477539,56.7325846 84.5747884,57.8556315 84.5939128,59.3530273 C84.6122233,60.8504232 83.9851888,61.9921875 82.7124023,62.7783203 L48.0102539,82.9370117 Z" id="Shape"></path>
        </g>
    </g>
</svg>